<?xml version="1.0" standalone="no"?>
<!DOCTYPE svg PUBLIC "-//W3C//DTD SVG 20010904//EN"
 "http://www.w3.org/TR/2001/REC-SVG-20010904/DTD/svg10.dtd">
<svg version="1.0" xmlns="http://www.w3.org/2000/svg"
 width="200.000000pt" height="200.000000pt" viewBox="0 0 200.000000 200.000000"
 preserveAspectRatio="xMidYMid meet">

<g transform="translate(0.000000,200.000000) scale(0.100000,-0.100000)"
fill="#000000" stroke="none">
<path d="M670 1400 c0 -110 2 -200 5 -200 3 0 28 11 55 25 27 13 82 36 122 49
55 19 73 30 74 44 3 44 28 76 69 85 51 11 140 1 219 -23 33 -11 62 -20 64 -20
1 0 2 54 2 120 l0 120 -305 0 -305 0 0 -200z"/>
<path d="M1000 1294 c-100 -21 -206 -78 -272 -146 -53 -54 -58 -62 -58 -103
l0 -45 305 0 305 0 0 149 c0 127 -2 150 -16 155 -28 11 -197 5 -264 -10z"/>
<path d="M660 661 l0 -171 30 0 30 0 -2 168 -3 167 -27 3 -28 3 0 -170z"/>
<path d="M90 797 c-60 -31 -93 -93 -87 -160 8 -89 74 -147 166 -147 91 0 147
46 158 130 l6 40 -82 0 c-80 0 -81 0 -81 -25 0 -23 4 -25 45 -25 51 0 60 -18
23 -44 -38 -27 -103 -21 -140 13 -28 25 -33 36 -33 75 0 36 6 51 26 71 36 37
89 43 134 16 28 -16 41 -19 56 -11 25 14 24 22 -4 48 -49 46 -123 53 -187 19z"/>
<path d="M1060 650 l0 -160 29 0 c29 0 30 2 33 51 l3 50 39 -50 c33 -44 43
-51 73 -51 l35 0 -34 41 c-66 81 -65 73 -18 131 l42 53 -31 3 c-24 3 -37 -3
-50 -20 -10 -13 -28 -34 -39 -48 l-21 -25 -1 93 0 92 -30 0 -30 0 0 -160z"/>
<path d="M1513 793 c-7 -2 -13 -16 -13 -29 0 -19 5 -24 25 -24 21 0 25 5 25
30 0 29 -9 35 -37 23z"/>
<path d="M1630 760 c0 -33 -3 -40 -20 -40 -14 0 -20 -7 -20 -24 0 -15 7 -26
20 -29 17 -4 20 -14 20 -69 0 -78 13 -98 68 -105 42 -6 42 -5 42 26 0 18 -4
30 -9 27 -5 -4 -16 -3 -25 0 -12 5 -16 20 -16 65 0 56 1 59 25 59 20 0 25 5
25 25 0 20 -5 25 -25 25 -22 0 -25 4 -25 40 0 38 -2 40 -30 40 -28 0 -30 -2
-30 -40z"/>
<path d="M435 720 c-84 -34 -98 -162 -23 -214 26 -19 80 -21 111 -5 16 9 22 9
25 0 2 -6 15 -11 28 -11 24 0 24 0 24 115 l0 115 -25 0 c-14 0 -25 -4 -25 -9
0 -6 -16 -3 -35 5 -38 16 -51 16 -80 4z m88 -62 c9 -7 19 -25 22 -40 5 -21 1
-33 -19 -52 -30 -31 -59 -33 -86 -6 -24 24 -26 67 -3 92 19 21 62 24 86 6z"/>
<path d="M835 720 c-84 -34 -98 -162 -23 -214 26 -19 80 -21 110 -5 15 8 22 8
28 -1 4 -6 18 -10 31 -8 23 3 24 5 27 116 l3 112 -31 0 c-16 0 -30 -4 -30 -9
0 -6 -16 -3 -35 5 -38 16 -51 16 -80 4z m95 -70 c11 -11 20 -28 20 -39 0 -29
-39 -71 -66 -71 -53 0 -84 72 -47 112 21 24 68 23 93 -2z"/>
<path d="M1318 715 c-30 -17 -44 -51 -34 -83 4 -12 28 -29 62 -42 30 -13 53
-28 51 -34 -6 -17 -47 -19 -65 -2 -15 13 -20 13 -41 -3 l-23 -18 27 -21 c40
-32 108 -30 140 3 44 43 27 87 -45 114 -24 9 -45 21 -47 27 -6 19 29 26 47 9
16 -14 19 -14 39 2 22 18 22 19 3 36 -27 25 -81 30 -114 12z"/>
<path d="M1500 605 l0 -115 25 0 25 0 0 115 0 115 -25 0 -25 0 0 -115z"/>
<path d="M1806 618 c48 -111 51 -138 17 -153 -16 -7 -23 -18 -23 -38 0 -27 2
-29 28 -22 55 14 72 40 136 218 l36 98 -32 -3 c-29 -3 -33 -8 -54 -72 -13 -38
-25 -71 -28 -73 -2 -2 -16 30 -31 72 -27 73 -29 75 -61 75 l-33 0 45 -102z"/>
</g>
</svg>
